<?xml version="1.0" encoding="UTF-8"?>
<svg width="32" height="32" version="1.1" viewBox="0 0 8.4667 8.4667" xmlns="http://www.w3.org/2000/svg">
 <g transform="translate(-15.353 -4.488)">
  <g transform="matrix(.019659 0 0 .019659 15.443 4.5773)">
   <path d="m400.49 291.1-58.865-36.976 58.864-36.971c2.185-1.372 3.511-3.771 3.511-6.351s-1.326-4.979-3.511-6.352l-58.865-36.977 58.862-36.973c2.185-1.373 3.511-3.771 3.511-6.351s-1.326-4.979-3.511-6.351l-185.7-116.65c-2.438-1.532-5.54-1.532-7.979 0l-185.7 116.65c-2.185 1.373-3.511 3.771-3.511 6.351s1.326 4.979 3.511 6.351l58.861 36.972-58.859 36.978c-2.185 1.373-3.51 3.771-3.51 6.351s1.326 4.979 3.511 6.351l58.859 36.97-58.859 36.979c-2.185 1.372-3.51 3.771-3.51 6.351s1.326 4.979 3.511 6.351l185.7 116.64c1.22 0.766 2.604 1.149 3.989 1.149s2.77-0.383 3.989-1.149l185.71-116.64c2.185-1.372 3.511-3.771 3.511-6.351s-1.326-4.979-3.511-6.351zm-361.3-166.95 171.6-107.79 171.6 107.79-171.6 107.79zm2e-3 86.651 54.869-34.471 112.74 70.818c1.219 0.766 2.604 1.149 3.989 1.149s2.77-0.383 3.989-1.149l112.74-70.817 54.875 34.47-171.61 107.78zm171.6 194.43-171.6-107.78 54.87-34.472 112.74 70.814c1.22 0.766 2.604 1.149 3.989 1.149s2.77-0.383 3.989-1.149l112.74-70.812 54.876 34.47z"/>
  </g>
 </g>
</svg>
