<?xml version="1.0" encoding="UTF-8" standalone="no"?>
<!-- Generator: Adobe Illustrator 19.0.0, SVG Export Plug-In . SVG Version: 6.00 Build 0)  -->

<svg
   version="1.1"
   id="Layer_1"
   x="0px"
   y="0px"
   viewBox="0 0 31.999998 31.999998"
   xml:space="preserve"
   sodipodi:docname="layers-32px.svg"
   width="32"
   height="32"
   inkscape:version="1.1.1 (3bf5ae0d25, 2021-09-20)"
   xmlns:inkscape="http://www.inkscape.org/namespaces/inkscape"
   xmlns:sodipodi="http://sodipodi.sourceforge.net/DTD/sodipodi-0.dtd"
   xmlns="http://www.w3.org/2000/svg"
   xmlns:svg="http://www.w3.org/2000/svg"><defs
   id="defs121" /><sodipodi:namedview
   id="namedview119"
   pagecolor="#ffffff"
   bordercolor="#666666"
   borderopacity="1.0"
   inkscape:pageshadow="2"
   inkscape:pageopacity="0.0"
   inkscape:pagecheckerboard="0"
   showgrid="false"
   width="16px"
   fit-margin-top="0"
   fit-margin-left="-2.7755576e-17"
   fit-margin-right="0"
   fit-margin-bottom="0"
   inkscape:zoom="15.313456"
   inkscape:cx="16.619371"
   inkscape:cy="7.9995006"
   inkscape:window-width="1852"
   inkscape:window-height="1016"
   inkscape:window-x="68"
   inkscape:window-y="27"
   inkscape:window-maximized="1"
   inkscape:current-layer="Layer_1" />

<g
   id="g88"
   transform="matrix(0.128,0,0,0.128,-229.6903,-39.078004)">
</g>
<g
   id="g90"
   transform="matrix(0.128,0,0,0.128,-229.6903,-39.078004)">
</g>
<g
   id="g92"
   transform="matrix(0.128,0,0,0.128,-229.6903,-39.078004)">
</g>
<g
   id="g94"
   transform="matrix(0.128,0,0,0.128,-229.6903,-39.078004)">
</g>
<g
   id="g96"
   transform="matrix(0.128,0,0,0.128,-229.6903,-39.078004)">
</g>
<g
   id="g98"
   transform="matrix(0.128,0,0,0.128,-229.6903,-39.078004)">
</g>
<g
   id="g100"
   transform="matrix(0.128,0,0,0.128,-229.6903,-39.078004)">
</g>
<g
   id="g102"
   transform="matrix(0.128,0,0,0.128,-229.6903,-39.078004)">
</g>
<g
   id="g104"
   transform="matrix(0.128,0,0,0.128,-229.6903,-39.078004)">
</g>
<g
   id="g106"
   transform="matrix(0.128,0,0,0.128,-229.6903,-39.078004)">
</g>
<g
   id="g108"
   transform="matrix(0.128,0,0,0.128,-229.6903,-39.078004)">
</g>
<g
   id="g110"
   transform="matrix(0.128,0,0,0.128,-229.6903,-39.078004)">
</g>
<g
   id="g112"
   transform="matrix(0.128,0,0,0.128,-229.6903,-39.078004)">
</g>
<g
   id="g114"
   transform="matrix(0.128,0,0,0.128,-229.6903,-39.078004)">
</g>
<g
   id="g116"
   transform="matrix(0.128,0,0,0.128,-229.6903,-39.078004)">
</g>
<g
   id="g86"
   transform="matrix(0.07430184,0,0,0.07430184,0.29820377,0.33301343)">
	<g
   id="g84">
		<path
   d="m 400.491,291.098 -58.865,-36.976 58.864,-36.971 c 2.185,-1.372 3.511,-3.771 3.511,-6.351 0,-2.58 -1.326,-4.979 -3.511,-6.352 l -58.865,-36.977 58.862,-36.973 c 2.185,-1.373 3.511,-3.771 3.511,-6.351 0,-2.58 -1.326,-4.979 -3.511,-6.351 L 214.783,1.149 c -2.438,-1.532 -5.54,-1.532 -7.979,0 L 21.1,117.796 c -2.185,1.373 -3.511,3.771 -3.511,6.351 0,2.58 1.326,4.979 3.511,6.351 l 58.861,36.972 -58.859,36.978 c -2.185,1.373 -3.51,3.771 -3.51,6.351 0,2.58 1.326,4.979 3.511,6.351 l 58.859,36.97 -58.859,36.979 c -2.185,1.372 -3.51,3.771 -3.51,6.351 0,2.58 1.326,4.979 3.511,6.351 l 185.7,116.64 c 1.22,0.766 2.604,1.149 3.989,1.149 1.385,0 2.77,-0.383 3.989,-1.149 L 400.491,303.8 c 2.185,-1.372 3.511,-3.771 3.511,-6.351 0,-2.58 -1.326,-4.979 -3.511,-6.351 z M 39.189,124.147 210.794,16.357 382.398,124.147 210.794,231.937 Z m 0.002,86.651 54.869,-34.471 112.744,70.818 c 1.219,0.766 2.604,1.149 3.989,1.149 1.385,0 2.77,-0.383 3.989,-1.149 l 112.742,-70.817 54.875,34.47 -171.607,107.784 z M 210.792,405.232 39.191,297.448 94.061,262.976 206.803,333.79 c 1.22,0.766 2.604,1.149 3.989,1.149 1.385,0 2.77,-0.383 3.989,-1.149 l 112.744,-70.812 54.876,34.47 z"
   id="path82" />
	</g>
</g></svg>
